<?xml version="1.0" encoding="utf-8"?><!-- Uploaded to: SVG Repo, www.svgrepo.com, Generator: SVG Repo Mixer Tools -->
<svg version="1.1" id="Uploaded to svgrepo.com" xmlns="http://www.w3.org/2000/svg" xmlns:xlink="http://www.w3.org/1999/xlink" 
	 width="800px" height="800px" viewBox="0 0 32 32" xml:space="preserve">
<style type="text/css">
	.sharpcorners_een{fill:#111918;}
	.st0{fill:#0B1719;}
</style>
<path class="sharpcorners_een" d="M20,28h2v1H10v-1h2l1-3h6L20,28z M31,3v21H1V3H31z M29,5H3v17h26V5z M28,21H4V6h24V21z M7,10h8V9
	H7V10z M11,17H7v1h4V17z M19,15h-9v1h9V15z M19,13h-9v1h9V13z M20,11H10v1h10V11z"/>
</svg>